<svg xmlns="http://www.w3.org/2000/svg" width="38.402" height="38" viewBox="0 0 38.402 38">
    <path fill="#0077b7" d="M34.928 0H3.474A3.456 3.456 0 0 0 0 3.437v31.125A3.456 3.456 0 0 0 3.474 38h31.454a3.456 3.456 0 0 0 3.472-3.438V3.437A3.456 3.456 0 0 0 34.928 0zM11.883 32.812a1.006 1.006 0 0 1-1.011 1h-4.3a1.006 1.006 0 0 1-1.011-1v-17.85a1.006 1.006 0 0 1 1.011-1h4.3a1.006 1.006 0 0 1 1.011 1zM8.721 12.279a4.046 4.046 0 1 1 4.088-4.045 4.067 4.067 0 0 1-4.088 4.045zm25.651 20.613a.925.925 0 0 1-.929.92h-4.618a.925.925 0 0 1-.929-.92V24.52c0-1.249.37-5.473-3.3-5.473-2.846 0-3.423 2.891-3.539 4.189v9.657a.925.925 0 0 1-.929.92h-4.466a.925.925 0 0 1-.929-.92V14.881a.925.925 0 0 1 .929-.92h4.466a.925.925 0 0 1 .929.92v1.557c1.055-1.567 2.624-2.777 5.963-2.777 7.394 0 7.352 6.836 7.352 10.591v8.639z"/>
</svg>
