<svg xmlns="http://www.w3.org/2000/svg" width="47.223" height="38" viewBox="0 0 47.223 38">
    <path fill="#03a9f4" d="M47.223 52.5a20.338 20.338 0 0 1-5.578 1.514 9.551 9.551 0 0 0 4.259-5.3 19.462 19.462 0 0 1-6.139 2.321A9.745 9.745 0 0 0 32.693 48a9.632 9.632 0 0 0-9.675 9.591 9.781 9.781 0 0 0 .224 2.186A27.491 27.491 0 0 1 3.288 49.748a9.53 9.53 0 0 0 2.975 12.815 9.632 9.632 0 0 1-4.374-1.181v.105a9.656 9.656 0 0 0 7.756 9.421 9.751 9.751 0 0 1-2.538.316 8.64 8.64 0 0 1-1.833-.164 9.762 9.762 0 0 0 9.046 6.679 19.573 19.573 0 0 1-12 4.089A18.306 18.306 0 0 1 0 81.7 27.448 27.448 0 0 0 14.852 86c17.815 0 27.555-14.615 27.555-27.284 0-.424-.015-.833-.035-1.239a19.212 19.212 0 0 0 4.851-4.977z" transform="translate(0 -48)"/>
</svg>
